<?xml version="1.0" standalone="no"?>
<!DOCTYPE svg PUBLIC "-//W3C//DTD SVG 20010904//EN"
 "http://www.w3.org/TR/2001/REC-SVG-20010904/DTD/svg10.dtd">
<svg version="1.0" xmlns="http://www.w3.org/2000/svg"
 width="984.000000pt" height="984.000000pt" viewBox="0 0 984.000000 984.000000"
 preserveAspectRatio="xMidYMid meet">
<metadata>
Created by potrace 1.11, written by Peter Selinger 2001-2013
</metadata>
<g transform="translate(0.000000,984.000000) scale(0.100000,-0.100000)"
fill="#000000" stroke="none">
<path d="M9522 9825 c-18 -8 -33 -14 -35 -14 -1 0 -9 -2 -17 -5 -38 -13 -146
-46 -155 -47 -5 -1 -38 -12 -72 -25 -35 -13 -63 -21 -63 -18 0 4 -6 2 -12 -4
-7 -5 -29 -13 -48 -18 -49 -11 -49 -11 -55 -14 -3 -1 -9 -4 -15 -5 -5 -1 -12
-4 -15 -5 -3 -1 -8 -3 -12 -4 -5 -2 -28 -8 -53 -15 -25 -7 -52 -15 -60 -17 -8
-2 -112 -30 -230 -63 -118 -33 -226 -62 -240 -65 -14 -3 -70 -17 -125 -31 -55
-15 -111 -28 -125 -31 -14 -2 -59 -13 -100 -24 -41 -11 -85 -22 -97 -24 -13
-3 -78 -18 -145 -34 -249 -60 -349 -83 -371 -86 -13 -1 -27 -5 -32 -8 -8 -4
-84 -21 -92 -20 -2 1 -17 -4 -35 -9 -18 -5 -46 -12 -63 -14 -16 -3 -43 -10
-60 -15 -16 -5 -43 -11 -60 -14 -16 -2 -30 -5 -30 -6 0 -1 -11 -3 -25 -6 -26
-5 -150 -33 -285 -65 -44 -11 -91 -22 -105 -24 -14 -3 -40 -9 -57 -14 -18 -5
-33 -7 -33 -4 0 3 -7 0 -15 -7 -8 -7 -15 -10 -15 -8 0 3 -26 -1 -57 -9 -32 -8
-67 -16 -78 -18 -17 -3 -93 -22 -327 -81 -10 -2 -28 -6 -39 -9 -12 -2 -67 -16
-123 -31 -55 -14 -108 -28 -116 -30 -8 -2 -51 -13 -95 -25 -44 -11 -87 -23
-95 -24 -8 -2 -16 -4 -17 -5 -2 -2 -7 -4 -13 -5 -5 -1 -11 -3 -12 -5 -2 -1
-10 -3 -18 -5 -8 -1 -35 -8 -60 -15 -25 -7 -49 -13 -55 -14 -5 -1 -50 -15
-100 -30 -49 -16 -94 -29 -100 -30 -5 -2 -44 -13 -85 -26 -41 -13 -77 -24 -80
-25 -3 0 -36 -11 -75 -24 -38 -13 -77 -24 -85 -26 -8 -2 -32 -11 -52 -19 -21
-9 -38 -13 -38 -10 0 4 -6 2 -12 -4 -7 -6 -16 -11 -20 -11 -23 -4 -242 -81
-271 -97 -16 -7 -32 -14 -37 -14 -4 0 -25 -8 -46 -17 -22 -9 -43 -17 -49 -18
-5 -1 -19 -5 -30 -10 -11 -4 -78 -32 -150 -62 -132 -55 -164 -70 -291 -129
-40 -19 -76 -34 -82 -34 -6 0 -12 -3 -14 -7 -4 -10 -66 -43 -80 -43 -5 0 -16
-7 -24 -15 -9 -8 -24 -15 -35 -15 -10 0 -19 -4 -19 -9 0 -5 -15 -15 -32 -22
-34 -14 -169 -89 -178 -98 -3 -3 -12 -7 -20 -9 -8 -2 -22 -9 -30 -17 -8 -7
-31 -21 -50 -30 -19 -10 -37 -21 -40 -24 -3 -3 -15 -12 -27 -18 -13 -7 -33
-19 -45 -25 -13 -7 -25 -16 -28 -19 -3 -3 -54 -38 -115 -79 -60 -40 -112 -76
-115 -79 -3 -3 -41 -33 -85 -65 -82 -61 -227 -182 -297 -248 -22 -21 -41 -38
-43 -38 -8 0 -185 -183 -185 -192 0 -5 -4 -6 -10 -3 -5 3 -10 2 -10 -2 0 -5
-19 -29 -42 -55 -75 -82 -99 -111 -190 -228 -49 -63 -96 -123 -104 -133 -8 -9
-14 -20 -14 -23 0 -3 -8 -16 -17 -29 -10 -12 -25 -33 -33 -45 -8 -12 -20 -28
-26 -34 -6 -6 -11 -14 -12 -18 -1 -5 -17 -32 -35 -60 -19 -29 -42 -69 -53 -88
-10 -19 -25 -41 -31 -48 -7 -7 -13 -19 -13 -26 0 -8 -7 -19 -15 -26 -9 -7 -13
-15 -11 -18 3 -2 -5 -21 -18 -41 -51 -81 -195 -397 -226 -496 -7 -22 -16 -44
-20 -50 -16 -24 -93 -263 -147 -460 -23 -87 -28 -104 -37 -153 -3 -13 -7 -31
-10 -40 -5 -17 -14 -58 -21 -97 -3 -18 -13 -66 -30 -145 -2 -13 -7 -40 -10
-60 -5 -34 -8 -53 -20 -110 -2 -14 -7 -44 -10 -67 -3 -23 -8 -57 -10 -75 -3
-18 -8 -58 -11 -88 -11 -106 -14 -125 -18 -160 -2 -19 -7 -75 -11 -125 -3 -49
-8 -112 -10 -140 -22 -275 -22 -838 0 -1185 13 -195 18 -278 19 -295 1 -11 5
-26 9 -33 5 -7 3 -12 -3 -12 -6 0 -8 -5 -3 -12 4 -7 8 -22 9 -33 14 -183 29
-278 60 -377 16 -48 11 -69 -20 -105 -18 -21 -30 -36 -56 -73 -13 -19 -29 -40
-35 -46 -5 -6 -17 -22 -25 -34 -8 -12 -21 -28 -27 -36 -7 -7 -13 -17 -13 -22
0 -6 -4 -12 -8 -14 -5 -1 -35 -39 -67 -83 -32 -44 -61 -82 -64 -85 -3 -3 -10
-12 -16 -21 -25 -40 -69 -105 -79 -116 -25 -28 -36 -42 -36 -47 0 -4 -111
-171 -127 -191 -5 -5 -43 -68 -84 -140 -115 -197 -194 -357 -251 -508 -41
-112 -118 -329 -123 -347 -2 -8 -11 -42 -19 -75 -44 -164 4 -151 179 50 39 44
81 95 95 113 27 35 45 59 86 107 23 28 38 46 119 149 17 21 37 47 47 58 9 10
31 38 50 60 82 102 133 164 147 180 9 9 25 28 36 42 21 27 29 36 110 130 186
214 486 513 663 661 33 28 38 28 122 10 64 -13 77 -16 110 -21 19 -3 43 -7 52
-10 22 -7 53 -12 98 -18 19 -2 46 -7 60 -10 25 -5 62 -12 130 -22 55 -9 75
-12 75 -14 0 0 24 -3 53 -5 29 -3 57 -7 61 -10 5 -2 33 -7 62 -10 30 -4 80
-11 111 -16 32 -5 90 -12 130 -14 40 -3 73 -5 73 -5 0 -4 48 -10 105 -15 36
-3 88 -8 115 -11 28 -2 75 -7 105 -9 30 -2 55 -4 55 -5 0 -7 495 -23 690 -23
256 1 609 18 741 37 21 3 70 8 107 11 37 4 78 8 90 11 12 2 38 6 59 9 66 9
122 17 153 21 17 3 44 7 60 9 17 3 53 9 80 15 28 6 61 13 75 15 14 3 36 7 50
10 14 3 39 8 55 11 17 3 57 12 90 20 61 16 83 21 122 30 12 2 34 9 48 14 14 5
25 8 25 5 0 -2 15 2 34 10 18 8 45 16 60 19 29 5 90 23 116 34 8 3 20 6 25 7
14 2 56 15 80 25 11 4 49 18 85 30 86 30 234 87 290 112 42 19 89 39 100 43
98 33 600 306 621 337 3 6 8 8 10 7 5 -4 133 82 137 93 2 4 10 8 18 8 8 0 14
5 14 10 0 6 6 10 14 10 8 0 16 3 18 8 2 4 46 39 98 79 52 39 106 81 120 93 14
12 40 34 59 48 57 46 149 132 280 263 143 142 219 225 313 341 18 23 41 49 51
57 9 9 17 19 17 24 0 5 17 30 39 56 21 25 60 78 86 116 26 39 52 72 56 73 5 2
9 10 9 18 0 8 4 14 9 14 5 0 14 14 21 30 7 17 16 30 21 30 5 0 11 11 15 25 3
14 10 25 15 25 5 0 9 5 9 11 0 6 11 25 25 43 14 18 25 38 25 44 0 7 5 12 10
12 6 0 10 7 10 15 0 8 5 15 12 15 6 0 9 3 5 6 -3 3 10 30 29 59 44 70 179 328
176 337 -1 5 3 8 8 8 6 0 10 4 10 9 0 6 25 62 55 126 30 65 55 121 55 126 0 4
9 24 20 44 11 19 19 36 19 38 0 1 7 22 17 47 10 25 18 48 16 52 -1 5 3 8 9 8
5 0 7 4 4 10 -3 5 1 20 8 32 8 13 20 41 27 63 7 22 15 45 19 50 3 6 6 15 8 20
1 6 24 74 52 152 27 79 48 143 45 143 -3 0 0 9 6 21 7 11 14 32 16 47 3 14 8
30 12 36 3 6 7 16 8 21 1 6 14 53 29 105 15 52 29 104 31 115 4 25 33 135 41
155 3 8 7 26 8 40 2 14 6 35 9 48 30 114 94 429 112 552 3 19 10 62 16 95 6
33 12 71 13 85 1 14 5 43 8 65 4 22 9 60 12 85 3 25 8 62 11 83 9 57 12 87 19
157 3 36 8 81 11 100 4 33 11 116 19 225 2 28 6 82 10 120 37 463 41 1332 9
1860 -3 50 -6 124 -8 166 -1 41 -5 80 -8 85 -2 5 -4 35 -4 66 1 32 -1 58 -4
58 -3 0 -6 28 -7 63 -2 34 -4 78 -6 97 -2 19 -5 50 -6 68 -1 36 -3 37 -49 17z"/>
</g>
</svg>
